<svg xmlns="http://www.w3.org/2000/svg" xmlns:xlink="http://www.w3.org/1999/xlink" viewBox="0 0 48.031 42">
    <path fill="#000" d="M46.536,9.923 L23.326,33.015 C22.680,33.658 21.831,33.980 20.982,33.980 C20.133,33.980 19.284,33.658 18.637,33.015 L7.356,21.791 C5.405,19.850 5.405,16.692 7.356,14.751 C9.306,12.810 12.481,12.810 14.431,14.751 L20.982,21.268 L39.461,2.884 C41.411,0.943 44.585,0.943 46.536,2.884 C48.487,4.825 48.487,7.982 46.536,9.923 ZM32.227,6.239 C29.002,3.827 25.156,2.552 21.107,2.552 C10.883,2.552 2.565,10.828 2.565,21.000 C2.565,31.172 10.883,39.448 21.107,39.448 C31.331,39.448 39.649,31.173 39.649,21.000 C39.649,20.556 39.633,20.111 39.602,19.676 C39.551,18.973 40.082,18.363 40.789,18.312 C41.496,18.263 42.109,18.790 42.160,19.493 C42.196,19.988 42.214,20.495 42.214,21.000 C42.214,32.580 32.745,42.000 21.107,42.000 C9.469,42.000 0.000,32.579 0.000,21.000 C0.000,9.421 9.469,-0.000 21.107,0.000 C25.716,0.000 30.095,1.452 33.768,4.198 C34.335,4.622 34.449,5.422 34.023,5.985 C33.598,6.548 32.794,6.662 32.227,6.239 Z"/>
</svg>