<svg xmlns="http://www.w3.org/2000/svg" xmlns:xlink="http://www.w3.org/1999/xlink" width="42" height="43" viewBox="0 0 42 43">
    <path fill="#000" d="M27.580,29.067 C25.812,29.067 24.094,28.750 22.463,28.124 L19.120,31.494 C18.923,31.692 18.655,31.804 18.377,31.804 L16.115,31.804 L16.115,34.083 C16.115,34.668 15.645,35.142 15.065,35.142 L14.035,35.142 L14.035,36.180 C14.035,36.765 13.564,37.239 12.984,37.239 L10.414,37.239 L10.414,39.832 C10.414,40.113 10.303,40.383 10.106,40.582 L8.011,42.690 C7.814,42.889 7.547,43.000 7.268,43.000 L1.051,43.000 C0.470,43.000 -0.000,42.526 -0.000,41.941 L-0.000,34.337 C-0.000,34.056 0.111,33.786 0.308,33.588 L14.095,19.690 C13.475,18.046 13.161,16.315 13.161,14.533 C13.161,6.520 19.630,-0.000 27.581,-0.000 C35.531,-0.000 42.000,6.520 42.000,14.533 C42.000,22.547 35.531,29.067 27.580,29.067 ZM27.581,2.118 C20.789,2.118 15.263,7.688 15.263,14.534 C15.263,16.267 15.610,17.943 16.295,19.516 C16.472,19.923 16.374,20.382 16.084,20.681 C16.081,20.684 16.078,20.687 16.075,20.691 L2.102,34.775 L2.102,36.689 L13.608,25.092 C13.978,24.719 14.576,24.719 14.946,25.092 C15.315,25.464 15.315,26.067 14.946,26.440 L2.102,39.385 L2.102,40.882 L6.833,40.882 L8.313,39.393 L8.313,36.180 C8.313,35.595 8.783,35.121 9.364,35.121 L11.933,35.121 L11.933,34.083 C11.933,33.498 12.404,33.024 12.984,33.024 L14.014,33.024 L14.014,30.745 C14.014,30.160 14.484,29.686 15.065,29.686 L17.942,29.686 L21.471,26.129 C21.474,26.125 21.477,26.123 21.480,26.120 C21.778,25.827 22.232,25.729 22.636,25.908 C24.197,26.598 25.861,26.948 27.581,26.948 C34.373,26.948 39.898,21.379 39.899,14.534 C39.899,7.688 34.373,2.118 27.581,2.118 ZM31.969,14.077 C29.798,14.077 28.033,12.298 28.033,10.110 C28.033,7.923 29.798,6.143 31.969,6.143 C34.139,6.143 35.905,7.923 35.905,10.110 C35.905,12.298 34.139,14.077 31.969,14.077 ZM31.969,8.261 C30.957,8.261 30.134,9.091 30.134,10.110 C30.134,11.130 30.957,11.959 31.969,11.959 C32.980,11.959 33.803,11.130 33.803,10.110 C33.803,9.091 32.980,8.261 31.969,8.261 Z"/>
</svg>
