<svg xmlns="http://www.w3.org/2000/svg" xmlns:xlink="http://www.w3.org/1999/xlink" width="32" height="42"  viewBox="0 0 32 42">
    <path d="M16.004,42.000 C7.179,42.000 -0.000,34.953 -0.000,26.294 C-0.000,22.419 1.439,18.870 3.815,16.126 L3.815,11.625 C3.815,5.212 9.147,0.000 15.692,0.000 C22.238,0.000 27.570,5.212 27.570,11.625 L27.570,15.389 C27.570,15.415 27.570,15.440 27.570,15.466 C30.309,18.287 32.000,22.102 32.000,26.294 C32.000,34.953 24.830,42.000 16.004,42.000 ZM23.998,11.625 C23.998,7.141 20.270,3.498 15.692,3.498 C11.115,3.498 7.387,7.150 7.387,11.625 L7.387,13.057 C9.875,11.497 12.831,10.588 15.996,10.588 C18.909,10.588 21.640,11.359 23.998,12.697 L23.998,11.625 ZM15.996,14.094 C9.147,14.094 3.572,19.573 3.572,26.302 C3.572,33.032 9.147,38.511 15.996,38.511 C22.845,38.511 28.419,33.032 28.419,26.302 C28.419,19.573 22.845,14.094 15.996,14.094 ZM17.782,28.514 L17.782,31.738 C17.782,32.707 16.984,33.487 15.996,33.487 C15.007,33.487 14.210,32.707 14.210,31.738 L14.210,28.514 C12.831,27.863 11.878,26.474 11.878,24.879 C11.878,22.659 13.724,20.850 15.996,20.850 C18.267,20.850 20.114,22.659 20.114,24.879 C20.114,26.483 19.160,27.863 17.782,28.514 ZM15.996,24.356 C15.692,24.356 15.449,24.588 15.449,24.888 C15.449,25.179 15.692,25.419 15.996,25.419 C16.299,25.419 16.542,25.179 16.542,24.888 C16.542,24.596 16.299,24.356 15.996,24.356 Z"/>
</svg>