<svg xmlns="http://www.w3.org/2000/svg" xmlns:xlink="http://www.w3.org/1999/xlink" viewBox="0 0 24 24">
    <path fill="#333" d="M24.000,12.000 C24.000,5.383 18.617,0.000 12.000,0.000 C5.383,0.000 -0.000,5.383 -0.000,12.000 C-0.000,15.495 1.503,18.645 3.895,20.840 L3.884,20.850 L4.273,21.178 C4.298,21.199 4.326,21.217 4.351,21.238 C4.558,21.409 4.772,21.572 4.990,21.730 C5.061,21.781 5.132,21.832 5.204,21.881 C5.437,22.042 5.676,22.194 5.920,22.339 C5.973,22.370 6.027,22.401 6.081,22.431 C6.348,22.584 6.621,22.727 6.901,22.859 C6.922,22.868 6.943,22.877 6.963,22.887 C7.875,23.311 8.848,23.622 9.865,23.805 C9.892,23.810 9.919,23.815 9.946,23.820 C10.262,23.874 10.581,23.918 10.904,23.947 C10.944,23.951 10.983,23.953 11.023,23.956 C11.345,23.983 11.670,24.000 12.000,24.000 C12.327,24.000 12.649,23.983 12.970,23.957 C13.010,23.954 13.051,23.952 13.091,23.948 C13.412,23.919 13.729,23.877 14.042,23.823 C14.069,23.818 14.096,23.813 14.123,23.808 C15.126,23.628 16.085,23.324 16.985,22.911 C17.018,22.896 17.051,22.882 17.084,22.866 C17.354,22.739 17.617,22.603 17.875,22.457 C17.939,22.421 18.003,22.385 18.066,22.347 C18.301,22.209 18.532,22.064 18.756,21.911 C18.837,21.856 18.916,21.798 18.996,21.740 C19.187,21.602 19.375,21.460 19.558,21.311 C19.599,21.278 19.642,21.250 19.682,21.216 L20.081,20.883 L20.070,20.873 C22.483,18.677 24.000,15.513 24.000,12.000 ZM0.873,12.000 C0.873,5.864 5.864,0.873 12.000,0.873 C18.136,0.873 23.127,5.864 23.127,12.000 C23.127,15.306 21.676,18.279 19.379,20.318 C19.251,20.230 19.122,20.150 18.990,20.084 L15.295,18.237 C14.963,18.071 14.757,17.738 14.757,17.367 L14.757,16.077 C14.843,15.971 14.933,15.852 15.027,15.720 C15.505,15.045 15.888,14.294 16.168,13.485 C16.721,13.222 17.078,12.672 17.078,12.050 L17.078,10.503 C17.078,10.125 16.939,9.758 16.691,9.469 L16.691,7.433 C16.714,7.206 16.794,5.928 15.869,4.874 C15.065,3.956 13.763,3.491 12.000,3.491 C10.237,3.491 8.935,3.956 8.131,4.873 C7.206,5.928 7.286,7.206 7.309,7.432 L7.309,9.469 C7.061,9.757 6.922,10.124 6.922,10.502 L6.922,12.049 C6.922,12.530 7.138,12.978 7.507,13.280 C7.860,14.665 8.588,15.713 8.856,16.068 L8.856,17.331 C8.856,17.687 8.662,18.014 8.349,18.185 L4.899,20.067 C4.789,20.127 4.680,20.197 4.571,20.275 C2.302,18.237 0.873,15.282 0.873,12.000 ZM18.528,21.003 C18.375,21.114 18.219,21.221 18.062,21.324 C17.990,21.371 17.918,21.418 17.844,21.464 C17.638,21.591 17.428,21.713 17.215,21.826 C17.167,21.851 17.120,21.874 17.072,21.899 C16.581,22.151 16.073,22.367 15.550,22.543 C15.532,22.549 15.514,22.556 15.495,22.562 C15.221,22.653 14.944,22.733 14.664,22.803 C14.663,22.803 14.662,22.803 14.661,22.803 C14.379,22.873 14.092,22.931 13.804,22.978 C13.796,22.980 13.789,22.982 13.781,22.983 C13.510,23.027 13.237,23.059 12.963,23.083 C12.914,23.087 12.866,23.090 12.817,23.094 C12.546,23.114 12.274,23.127 12.000,23.127 C11.723,23.127 11.448,23.114 11.173,23.093 C11.126,23.090 11.078,23.087 11.031,23.082 C10.754,23.058 10.479,23.025 10.206,22.981 C10.194,22.978 10.182,22.976 10.169,22.974 C9.593,22.878 9.025,22.736 8.472,22.550 C8.455,22.545 8.438,22.539 8.420,22.533 C8.146,22.440 7.875,22.336 7.608,22.222 C7.606,22.221 7.604,22.220 7.602,22.219 C7.350,22.111 7.103,21.990 6.858,21.863 C6.826,21.847 6.794,21.831 6.763,21.814 C6.540,21.695 6.322,21.566 6.106,21.432 C6.043,21.391 5.980,21.351 5.917,21.310 C5.719,21.180 5.523,21.045 5.333,20.903 C5.313,20.888 5.294,20.872 5.275,20.857 C5.289,20.849 5.303,20.842 5.317,20.834 L8.767,18.952 C9.360,18.628 9.729,18.007 9.729,17.331 L9.729,15.759 L9.628,15.638 C9.619,15.627 8.675,14.479 8.319,12.926 L8.279,12.753 L8.130,12.656 C7.920,12.521 7.795,12.294 7.795,12.049 L7.795,10.502 C7.795,10.299 7.881,10.110 8.038,9.968 L8.182,9.838 L8.182,7.408 L8.178,7.351 C8.177,7.340 8.048,6.291 8.787,5.448 C9.418,4.729 10.499,4.364 12.000,4.364 C13.495,4.364 14.573,4.726 15.206,5.440 C15.944,6.274 15.823,7.343 15.822,7.351 L15.818,9.839 L15.962,9.969 C16.119,10.111 16.205,10.300 16.205,10.503 L16.205,12.050 C16.205,12.361 15.994,12.643 15.690,12.737 L15.473,12.804 L15.403,13.020 C15.146,13.820 14.779,14.558 14.314,15.216 C14.200,15.377 14.088,15.520 13.993,15.630 L13.885,15.753 L13.885,17.367 C13.885,18.071 14.276,18.703 14.905,19.018 L18.600,20.865 C18.623,20.877 18.646,20.889 18.669,20.901 C18.623,20.936 18.575,20.969 18.528,21.003 Z"/>
</svg>