<?xml version="1.0" encoding="utf-8"?>
<svg version="1.1" xmlns="http://www.w3.org/2000/svg" xmlns:xlink="http://www.w3.org/1999/xlink" x="0px" y="0px" viewBox="0 0 416.1 179" xml:space="preserve">
	<g>
		<g>
			<path d="M135.2,150.7h-1.3v-42.5h1.2l17.4,25.7l17.5-25.7h1.2v42.5h-1.3v-40.4l-16.9,25.1h-0.9l-16.9-25.1V150.7z"/>
			<path d="M206.8,114c3.9-4,9.3-6.4,15.2-6.4c6.1,0,11.5,2.4,15.4,6.4c3.9,4,6.4,9.4,6.4,15.4c0,6-2.5,11.4-6.4,15.4c-3.9,4-9.3,6.4-15.4,6.4c-5.9,0-11.4-2.4-15.2-6.4s-6.4-9.4-6.4-15.4C200.4,123.4,202.9,118,206.8,114z M236.5,115c-3.6-3.7-8.8-6.1-14.4-6.1c-5.6,0-10.7,2.4-14.4,6.1c-3.6,3.7-5.9,8.8-5.9,14.4c0,5.6,2.4,10.7,5.9,14.4c3.7,3.7,8.8,6.1,14.4,6.1c5.6,0,10.8-2.4,14.4-6.1c3.6-3.7,6-8.8,6-14.4C242.4,123.8,240.1,118.7,236.5,115z"/>
			<path d="M272.3,150.7v-42.5h1.1l27.7,40.1v-40.1h1.3v42.5h-1.2l-27.6-39.8v39.8H272.3z"/>
			<path d="M333.9,149.4h22.4v1.3h-23.7v-42.5h23.6v1.3h-22.3v19.3h21.8v1.3h-21.8V149.4z"/>
			<path d="M385.1,108.2l14.7,23.5l14.7-23.5h1.6l-15.7,24.9v17.5h-1.3v-17.5l-15.7-24.9H385.1z"/>
		</g>
		<g>
			<path d="M161.6,45c-1.2-5.5-7.2-7.9-12.5-7.8c-4.1,0.1-8.7,1.5-11.1,4.6c-1.2,1.6-1.7,3.6-1.5,5.7c0.4,6.3,7.3,7.1,13.9,7.7c8.4,1,18.8,3.2,21.2,13c0.3,1.3,0.4,2.8,0.4,4c0,11.8-11.7,18.6-22.7,18.6c-9.4,0-20.9-5.6-22-16.5l-0.1-1.7l8.9-0.2l0.1,1.3v-0.3c0.6,5.7,7.5,8.7,13.2,8.7c6.6,0,13.7-3.7,13.7-10c0-0.6-0.1-1.3-0.3-2.1c-1-4.6-7.3-5.4-13.5-6c-9.5-1-20.7-3.1-21.7-15.8v0.1c-0.3-4.1,0.7-8.2,3.3-11.6c4.1-5.3,11.5-8.1,18.5-8.1c9.4,0,19.2,4.9,20.8,16.1L161.6,45z"/>
			<path d="M195.7,90.3h-8.8V29.2h7.2l20.2,29.7l20.2-29.7h7v61.2h-8.7V47.3l-16,23.8h-5l-16-23.8V90.3z"/>
			<path d="M293,72.3h-21.9c-2.4,5.6-5.4,12.9-7.3,18h-9.5l24.6-62h6.5l24.6,62h-9.4L293,72.3z M274.4,64h15.2l-7.5-21.6L274.4,64z"/>
			<path d="M334.6,59.3H345c7.4,0,11.1-5.3,11.1-10.7c0-5.2-3.7-10.6-11.1-10.6h-13.5v52.3h-8.7V29.2H345c13.3,0,19.9,9.8,19.9,19.5c0,8.7-5.3,16.9-15.8,18.7l19.3,23h-11.5l-22.3-26.8V59.3z"/>
			<path d="M387.1,90.6V37.4h-18.5v-8.2h45.8v8.2h-18.4v53.2H387.1z"/>
		</g>
	</g>
	<g>
        <polygon fill="#FBD00E" points="51.8,0.6 77.6,15.4 103.5,30.3 77.7,45.3 51.8,60.2 51.8,30.4"/>
		<polygon fill="#FBB616" points="51.8,0 51.8,29.8 51.7,59.7 25.9,44.7 0.1,29.8 25.9,14.9"/>
		<polygon fill="#F47622" points="0,89.4 0.1,59.6 0.1,29.8 25.9,44.7 51.7,59.6 25.9,74.5"/>
		<polygon fill="#EF4F92" points="51.7,119.3 51.7,89.5 51.7,59.7 77.5,74.6 103.4,89.5 77.5,104.4"/>
		<polygon fill="#CB2052" points="51.7,59.7 51.7,89.5 51.7,119.3 25.9,104.4 0,89.4 25.9,74.5"/>
		<polygon fill="#493B96" points="51.6,179 51.7,149.1 51.7,119.3 77.5,134.2 103.3,149.2 77.5,164.1"/>
		<polygon fill="#8C2E7C" points="103.4,89.5 103.3,119.4 103.3,149.2 77.5,134.2 51.7,119.3 77.5,104.4"/>
		<polygon fill="#282D69" points="51.7,119.3 51.7,149.1 51.6,179 25.8,164 0,149.1 25.8,134.2"/>
	</g>
</svg>