<svg fill="rgba(255,255,255,0.8)" xmlns="http://www.w3.org/2000/svg" xmlns:xlink="http://www.w3.org/1999/xlink" viewBox="0 0 114 114">
    <path d="M98.829,80.090 C98.591,79.374 97.080,78.320 94.294,76.928 C93.539,76.490 92.464,75.893 91.073,75.138 C89.680,74.381 88.416,73.685 87.284,73.048 C86.149,72.412 85.085,71.795 84.091,71.200 C83.932,71.080 83.435,70.732 82.599,70.155 C81.763,69.578 81.058,69.151 80.480,68.872 C79.903,68.593 79.337,68.455 78.779,68.455 C77.984,68.455 76.990,69.021 75.797,70.155 C74.604,71.289 73.510,72.522 72.516,73.855 C71.521,75.188 70.468,76.421 69.354,77.554 C68.240,78.689 67.325,79.255 66.609,79.255 C66.251,79.255 65.803,79.156 65.266,78.958 C64.730,78.759 64.322,78.588 64.042,78.451 C63.764,78.311 63.287,78.033 62.611,77.614 C61.933,77.197 61.556,76.968 61.477,76.928 C56.027,73.904 51.352,70.443 47.454,66.545 C43.556,62.646 40.094,57.972 37.071,52.522 C37.031,52.442 36.802,52.064 36.385,51.388 C35.967,50.711 35.688,50.235 35.549,49.955 C35.410,49.677 35.241,49.269 35.042,48.732 C34.844,48.195 34.744,47.748 34.744,47.390 C34.744,46.674 35.311,45.758 36.445,44.644 C37.578,43.531 38.812,42.476 40.144,41.483 C41.477,40.489 42.710,39.394 43.844,38.201 C44.977,37.008 45.544,36.014 45.544,35.218 C45.544,34.662 45.405,34.094 45.127,33.517 C44.849,32.940 44.421,32.234 43.844,31.399 C43.266,30.563 42.919,30.066 42.799,29.907 C42.203,28.913 41.587,27.849 40.950,26.715 C40.312,25.581 39.617,24.317 38.861,22.925 C38.105,21.534 37.509,20.459 37.071,19.703 C35.679,16.919 34.625,15.407 33.908,15.169 C33.630,15.050 33.212,14.989 32.655,14.989 C31.581,14.989 30.179,15.188 28.448,15.586 C26.717,15.984 25.355,16.401 24.360,16.839 C22.371,17.675 20.263,20.101 18.035,24.118 C16.006,27.857 14.992,31.558 14.992,35.217 C14.992,36.291 15.062,37.335 15.201,38.350 C15.340,39.364 15.589,40.508 15.947,41.782 C16.305,43.054 16.594,44.000 16.812,44.616 C17.030,45.232 17.438,46.336 18.035,47.927 C18.631,49.519 18.990,50.493 19.109,50.851 C20.501,54.750 22.152,58.231 24.061,61.294 C27.203,66.386 31.490,71.648 36.920,77.078 C42.350,82.508 47.611,86.795 52.704,89.938 C55.767,91.846 59.248,93.498 63.146,94.891 C63.505,95.009 64.480,95.368 66.070,95.966 C67.661,96.561 68.765,96.970 69.382,97.189 C69.998,97.408 70.943,97.696 72.216,98.055 C73.490,98.413 74.633,98.661 75.648,98.802 C76.662,98.939 77.706,99.011 78.781,99.011 C82.440,99.011 86.140,97.995 89.880,95.967 C93.896,93.739 96.323,91.630 97.158,89.641 C97.598,88.647 98.014,87.285 98.411,85.554 C98.810,83.823 99.008,82.422 99.008,81.347 C99.009,80.789 98.949,80.371 98.829,80.090 Z"/>
    <path d="M99.000,114.000 L15.000,114.000 C6.716,114.000 0.000,107.284 0.000,99.000 L0.000,15.000 C0.000,6.716 6.716,0.000 15.000,0.000 L99.000,0.000 C107.284,0.000 114.000,6.716 114.000,15.000 L114.000,99.000 C114.000,107.284 107.284,114.000 99.000,114.000 ZM109.000,17.000 C109.000,10.373 103.627,5.000 97.000,5.000 L17.000,5.000 C10.373,5.000 5.000,10.373 5.000,17.000 L5.000,97.000 C5.000,103.627 10.373,109.000 17.000,109.000 L97.000,109.000 C103.627,109.000 109.000,103.627 109.000,97.000 L109.000,17.000 Z"/>
</svg>